<mxfile host="app.diagrams.net" modified="2022-11-05T07:50:05.790Z" agent="5.0 (Windows NT 10.0; Win64; x64) AppleWebKit/537.36 (KHTML, like Gecko) Chrome/107.0.0.0 Safari/537.36" etag="R8wdDyq1iQ10a8IiV07r" version="20.4.2" type="github">
  <diagram id="VA5ycrnIKvZJg06IQXPV" name="Page-1">
    <mxGraphModel dx="3129" dy="1114" grid="1" gridSize="10" guides="1" tooltips="1" connect="1" arrows="1" fold="1" page="1" pageScale="1" pageWidth="827" pageHeight="1169" math="0" shadow="0">
      <root>
        <mxCell id="0" />
        <mxCell id="1" parent="0" />
        <mxCell id="Lf8P7acD_IaQ5TE6Mbqm-38" style="edgeStyle=orthogonalEdgeStyle;rounded=0;orthogonalLoop=1;jettySize=auto;html=1;" edge="1" parent="1" source="Lf8P7acD_IaQ5TE6Mbqm-1" target="Lf8P7acD_IaQ5TE6Mbqm-4">
          <mxGeometry relative="1" as="geometry" />
        </mxCell>
        <mxCell id="Lf8P7acD_IaQ5TE6Mbqm-1" value="Start Game" style="rounded=0;whiteSpace=wrap;html=1;" vertex="1" parent="1">
          <mxGeometry x="-60" y="300" width="120" height="60" as="geometry" />
        </mxCell>
        <mxCell id="Lf8P7acD_IaQ5TE6Mbqm-36" value="" style="edgeStyle=orthogonalEdgeStyle;rounded=0;orthogonalLoop=1;jettySize=auto;html=1;" edge="1" parent="1" source="Lf8P7acD_IaQ5TE6Mbqm-4" target="Lf8P7acD_IaQ5TE6Mbqm-35">
          <mxGeometry relative="1" as="geometry" />
        </mxCell>
        <mxCell id="Lf8P7acD_IaQ5TE6Mbqm-4" value="Scene: Home" style="rounded=0;whiteSpace=wrap;html=1;" vertex="1" parent="1">
          <mxGeometry x="100" y="300" width="120" height="60" as="geometry" />
        </mxCell>
        <mxCell id="Lf8P7acD_IaQ5TE6Mbqm-31" value="" style="edgeStyle=orthogonalEdgeStyle;rounded=0;orthogonalLoop=1;jettySize=auto;html=1;" edge="1" parent="1" source="Lf8P7acD_IaQ5TE6Mbqm-7" target="Lf8P7acD_IaQ5TE6Mbqm-30">
          <mxGeometry relative="1" as="geometry" />
        </mxCell>
        <mxCell id="Lf8P7acD_IaQ5TE6Mbqm-7" value="" style="rounded=0;whiteSpace=wrap;html=1;" vertex="1" parent="1">
          <mxGeometry x="414" y="190" width="520" height="280" as="geometry" />
        </mxCell>
        <mxCell id="Lf8P7acD_IaQ5TE6Mbqm-22" style="edgeStyle=orthogonalEdgeStyle;rounded=0;orthogonalLoop=1;jettySize=auto;html=1;entryX=0;entryY=0.5;entryDx=0;entryDy=0;" edge="1" parent="1" source="Lf8P7acD_IaQ5TE6Mbqm-11" target="Lf8P7acD_IaQ5TE6Mbqm-16">
          <mxGeometry relative="1" as="geometry" />
        </mxCell>
        <mxCell id="Lf8P7acD_IaQ5TE6Mbqm-11" value="Scene: School" style="rounded=0;whiteSpace=wrap;html=1;" vertex="1" parent="1">
          <mxGeometry x="450" y="230" width="120" height="60" as="geometry" />
        </mxCell>
        <mxCell id="Lf8P7acD_IaQ5TE6Mbqm-24" style="edgeStyle=orthogonalEdgeStyle;rounded=0;orthogonalLoop=1;jettySize=auto;html=1;" edge="1" parent="1" source="Lf8P7acD_IaQ5TE6Mbqm-12" target="Lf8P7acD_IaQ5TE6Mbqm-17">
          <mxGeometry relative="1" as="geometry" />
        </mxCell>
        <mxCell id="Lf8P7acD_IaQ5TE6Mbqm-12" value="Scene: School" style="rounded=0;whiteSpace=wrap;html=1;" vertex="1" parent="1">
          <mxGeometry x="450" y="300" width="120" height="60" as="geometry" />
        </mxCell>
        <mxCell id="Lf8P7acD_IaQ5TE6Mbqm-27" style="edgeStyle=orthogonalEdgeStyle;rounded=0;orthogonalLoop=1;jettySize=auto;html=1;" edge="1" parent="1" source="Lf8P7acD_IaQ5TE6Mbqm-13" target="Lf8P7acD_IaQ5TE6Mbqm-18">
          <mxGeometry relative="1" as="geometry" />
        </mxCell>
        <mxCell id="Lf8P7acD_IaQ5TE6Mbqm-13" value="Scene: School" style="rounded=0;whiteSpace=wrap;html=1;" vertex="1" parent="1">
          <mxGeometry x="450" y="370" width="120" height="60" as="geometry" />
        </mxCell>
        <mxCell id="Lf8P7acD_IaQ5TE6Mbqm-23" style="edgeStyle=orthogonalEdgeStyle;rounded=0;orthogonalLoop=1;jettySize=auto;html=1;" edge="1" parent="1" source="Lf8P7acD_IaQ5TE6Mbqm-16" target="Lf8P7acD_IaQ5TE6Mbqm-19">
          <mxGeometry relative="1" as="geometry" />
        </mxCell>
        <mxCell id="Lf8P7acD_IaQ5TE6Mbqm-16" value="Archives" style="rounded=0;whiteSpace=wrap;html=1;" vertex="1" parent="1">
          <mxGeometry x="606" y="230" width="120" height="60" as="geometry" />
        </mxCell>
        <mxCell id="Lf8P7acD_IaQ5TE6Mbqm-25" style="edgeStyle=orthogonalEdgeStyle;rounded=0;orthogonalLoop=1;jettySize=auto;html=1;" edge="1" parent="1" source="Lf8P7acD_IaQ5TE6Mbqm-17" target="Lf8P7acD_IaQ5TE6Mbqm-20">
          <mxGeometry relative="1" as="geometry" />
        </mxCell>
        <mxCell id="Lf8P7acD_IaQ5TE6Mbqm-17" value="Shop" style="rounded=0;whiteSpace=wrap;html=1;" vertex="1" parent="1">
          <mxGeometry x="606" y="300" width="120" height="60" as="geometry" />
        </mxCell>
        <mxCell id="Lf8P7acD_IaQ5TE6Mbqm-28" style="edgeStyle=orthogonalEdgeStyle;rounded=0;orthogonalLoop=1;jettySize=auto;html=1;entryX=0;entryY=0.5;entryDx=0;entryDy=0;" edge="1" parent="1" source="Lf8P7acD_IaQ5TE6Mbqm-18" target="Lf8P7acD_IaQ5TE6Mbqm-21">
          <mxGeometry relative="1" as="geometry" />
        </mxCell>
        <mxCell id="Lf8P7acD_IaQ5TE6Mbqm-18" value="Shop" style="rounded=0;whiteSpace=wrap;html=1;" vertex="1" parent="1">
          <mxGeometry x="606" y="370" width="120" height="60" as="geometry" />
        </mxCell>
        <mxCell id="Lf8P7acD_IaQ5TE6Mbqm-19" value="Park" style="rounded=0;whiteSpace=wrap;html=1;" vertex="1" parent="1">
          <mxGeometry x="756" y="230" width="120" height="60" as="geometry" />
        </mxCell>
        <mxCell id="Lf8P7acD_IaQ5TE6Mbqm-20" value="Mailroom" style="rounded=0;whiteSpace=wrap;html=1;" vertex="1" parent="1">
          <mxGeometry x="756" y="300" width="120" height="60" as="geometry" />
        </mxCell>
        <mxCell id="Lf8P7acD_IaQ5TE6Mbqm-21" value="Home" style="rounded=0;whiteSpace=wrap;html=1;" vertex="1" parent="1">
          <mxGeometry x="756" y="370" width="120" height="60" as="geometry" />
        </mxCell>
        <mxCell id="Lf8P7acD_IaQ5TE6Mbqm-33" value="" style="edgeStyle=orthogonalEdgeStyle;rounded=0;orthogonalLoop=1;jettySize=auto;html=1;" edge="1" parent="1" source="Lf8P7acD_IaQ5TE6Mbqm-30" target="Lf8P7acD_IaQ5TE6Mbqm-32">
          <mxGeometry relative="1" as="geometry" />
        </mxCell>
        <mxCell id="Lf8P7acD_IaQ5TE6Mbqm-30" value="Scene: Home" style="rounded=0;whiteSpace=wrap;html=1;" vertex="1" parent="1">
          <mxGeometry x="970" y="300" width="120" height="60" as="geometry" />
        </mxCell>
        <mxCell id="Lf8P7acD_IaQ5TE6Mbqm-34" style="edgeStyle=orthogonalEdgeStyle;rounded=0;orthogonalLoop=1;jettySize=auto;html=1;" edge="1" parent="1" source="Lf8P7acD_IaQ5TE6Mbqm-32" target="Lf8P7acD_IaQ5TE6Mbqm-1">
          <mxGeometry relative="1" as="geometry">
            <mxPoint x="120" y="360" as="targetPoint" />
            <Array as="points">
              <mxPoint x="1180" y="500" />
              <mxPoint y="500" />
            </Array>
          </mxGeometry>
        </mxCell>
        <mxCell id="Lf8P7acD_IaQ5TE6Mbqm-32" value="End Game" style="whiteSpace=wrap;html=1;rounded=0;" vertex="1" parent="1">
          <mxGeometry x="1121" y="300" width="120" height="60" as="geometry" />
        </mxCell>
        <mxCell id="Lf8P7acD_IaQ5TE6Mbqm-37" style="edgeStyle=orthogonalEdgeStyle;rounded=0;orthogonalLoop=1;jettySize=auto;html=1;" edge="1" parent="1" source="Lf8P7acD_IaQ5TE6Mbqm-35" target="Lf8P7acD_IaQ5TE6Mbqm-7">
          <mxGeometry relative="1" as="geometry" />
        </mxCell>
        <mxCell id="Lf8P7acD_IaQ5TE6Mbqm-35" value="Scene: Park" style="rounded=0;whiteSpace=wrap;html=1;" vertex="1" parent="1">
          <mxGeometry x="260" y="300" width="120" height="60" as="geometry" />
        </mxCell>
        <mxCell id="Lf8P7acD_IaQ5TE6Mbqm-39" style="edgeStyle=orthogonalEdgeStyle;rounded=0;orthogonalLoop=1;jettySize=auto;html=1;exitX=0.5;exitY=1;exitDx=0;exitDy=0;" edge="1" parent="1" source="Lf8P7acD_IaQ5TE6Mbqm-30" target="Lf8P7acD_IaQ5TE6Mbqm-30">
          <mxGeometry relative="1" as="geometry" />
        </mxCell>
      </root>
    </mxGraphModel>
  </diagram>
</mxfile>
